<svg width="576" height="576" viewBox="0 0 576 576" fill="none" xmlns="http://www.w3.org/2000/svg">
<rect width="576" height="576" fill="black"/>
<path d="M444.927 263.063L471.555 169.511C471.875 168.311 470.421 167.474 469.607 168.387L384.959 263.063H15.151C13.6607 263.063 13.5953 265.417 15.0855 265.44L376.628 273.657L399.411 274.178L421.249 274.676L422.609 263.063H395.493L441.154 219.886L433.215 263.063L421.598 326.243L406.288 409.586C406.012 411.08 408.127 411.593 408.52 410.122L429.34 322.297L544.696 265.319C545.786 264.761 545.408 263.063 544.194 263.063H444.934H444.927ZM441.75 275.144L484.677 276.117L433.121 307.9L441.742 275.144H441.75Z" fill="white"/>
<path d="M379.281 279.513L372.004 279.256L329.382 324.417C328.379 325.519 329.884 327.134 330.974 326.123L379.274 279.505L379.281 279.513Z" fill="white"/>
<path d="M415.099 329.284L416.393 317.445L316.944 377.992C315.686 378.777 316.726 380.754 318.042 380.082L415.099 329.277V329.284Z" fill="white"/>
</svg>
