<svg width="576" height="576" viewBox="0 0 576 576" fill="none" xmlns="http://www.w3.org/2000/svg">
<rect width="576" height="576" fill="black"/>
<path d="M349.838 107C350.586 107 351.334 107 352.124 107C353.959 129.664 345.308 146.598 334.795 158.861C324.479 171.039 310.353 182.851 287.506 181.059C285.982 158.72 294.647 143.042 305.146 130.807C314.883 119.404 332.735 109.258 349.838 107Z" fill="white"/>
<path d="M419 342.893C419 343.119 419 343.316 419 343.528C412.579 362.974 403.421 379.64 392.244 395.107C382.041 409.148 369.538 428.044 347.213 428.044C327.922 428.044 315.109 415.64 295.338 415.301C274.424 414.962 262.923 425.673 243.802 428.368C241.614 428.368 239.427 428.368 237.282 428.368C223.241 426.336 211.909 415.216 203.654 405.197C179.311 375.59 160.5 337.347 157 288.407C157 283.609 157 278.825 157 274.027C158.482 239.002 175.501 210.524 198.122 196.723C210.06 189.385 226.472 183.133 244.747 185.927C252.579 187.141 260.581 189.822 267.594 192.475C274.241 195.03 282.553 199.559 290.427 199.319C295.761 199.164 301.068 196.384 306.444 194.423C322.193 188.736 337.631 182.216 357.981 185.278C382.436 188.976 399.794 199.842 410.519 216.606C389.831 229.773 373.475 249.614 376.269 283.496C378.753 314.274 396.647 332.281 419 342.893Z" fill="white"/>
</svg>
